<?xml version="1.0" encoding="UTF-8"?>
<svg xmlns="http://www.w3.org/2000/svg" width="256px" height="256px" viewBox="0 0 256 256">
  <defs>
    <linearGradient id="lg" x1=".7" x2=".3" y1="0" y2="1">
      <stop offset="0%" class="green"/>
      <stop offset="50%" class="light"/>
      <stop offset="100%" class="dark"/>
    </linearGradient>
  </defs>
  <style>
    .dark { stop-color: #FF9c00; }
    .light { stop-color: #FFBB34; }
    .green { stop-color: #9cFF00; }
  </style>
  <path d="M0,0h256v256h-256z" fill="url(#lg)" />
  <path transform="translate(-25,2) scale(36)" d="M3.75,1v1m-1,0v3m1,0v1" stroke="#fff"/>
  <path transform="translate(120,111) scale(1.75)" fill="#fff" d="M7.35 14.86q1.47-1.32 2.56-3.3 1.1-2 1.1-3.84 0-1.83-.46-2.82-.46-.99-1.27-.99T7.14 5.4q-1.3 1.44-2.36 3.8-1.04 2.37-1.04 4.53 0 1.09.3 1.77.31.67.77.67 1.06 0 2.54-1.3zm-2.52 4.37q-1.88 0-3.35-1.83Q.01 15.55.01 13.72q0-2.34.89-4.78.89-2.46 2.2-4.24 1.35-1.8 2.95-2.95Q7.65.58 9 .58q2.46 0 4.04 2.11 1.57 2.09 1.57 4.7 0 2.62-1.32 5.31-1.32 2.67-3.66 4.6-2.3 1.93-4.8 1.93zm12.86-.13q-.59 0-1.4-.96-.81-1-.81-1.6 0-.61.6-2.52Q17.97 8.18 18.1 3.8q-.86-.92-.86-1.45 0-.84 1.98-1.58Q21.2 0 23 0q3.06 0 4.81 1.42 1.78 1.43 1.78 3.64 0 2.81-2.77 5.1-2.74 2.29-6.93 3.12-1.2 4.3-1.58 5.06-.36.76-.63.76zm8.3-13.97q0-.81-.58-1.32-.59-.53-1.58-.53-.99 0-2.74.94.5.89.5 1.6 0 1.4-.73 4.14 2.29-.92 3.7-2.19Q26 6.47 26 5.13zm9.17 3.43q1.35 0 2.9-.13 1.55-.15 1.9-.15.38 0 .59.18.22.18.22.43 0 1.12-2.1 1.78-2.11.66-4.5.76-1 3.07-1 3.89 0 .43.44.43 2.9 0 5.97-.76 1.04-.28 1.2-.28.48 0 .48.68 0 .92-1.35 1.78t-3.38 1.37q-2.03.51-3.99.51-1.16 0-2.1-.86-.94-.9-.94-2.06 0-1.2 1.3-5.94 1.31-4.75 1.39-7.17-.03-.07-.03-.3 0-.36.1-.56.28-.71 1.55-.89 1.27-.2 4.58-.2 5.48 0 5.48 1.22 0 .78-1.34 1.09-.92.2-2.52.38-2.46.28-4.4.81 0 1.73-.6 3.99zM56.17.5q.73 0 1.62.77.92.76.92 1.25 0 1.6-.77 5.56-.73 3.93-1.9 7.54-1.17 3.6-2.1 3.6-.39 0-1-.4-.6-.43-.81-.99l-.79-2.39Q50 11.3 48.8 8.6q-.18.76-.48 2.15-.28 1.4-.46 2.21l-.43 1.94q-.26 1.11-.46 1.77-.18.66-.4 1.32-.41 1.25-.77 1.25-.5 0-1.32-.92-.81-.94-.81-1.6 0-.68 1.45-7.08 1.47-6.4 1.6-8.03.07-.96.58-.96.43 0 1.1.5.68.51 1.16 1.25.51.7 1.8 4.7 1.3 3.99 2.06 5.71 1-2.94 1.83-8.89.33-2.36.43-2.87.1-.53.49-.53z" />
</svg>
